<?xml version="1.0" standalone="no"?>
<!DOCTYPE svg PUBLIC "-//W3C//DTD SVG 1.1//EN" "http://www.w3.org/Graphics/SVG/1.1/DTD/svg11.dtd" >
<svg>
<metadata>
Created by FontForge 20090914 at Wed Dec  2 10:48:03 2020
 By www-data
Andriy Dykun (NREY)&#194;&#169; 2018. All Rights Reserved
</metadata>
<defs>
<font id="VoguerSansFree" horiz-adv-x="571" >
  <font-face 
    font-family="Voguer Sans Free"
    font-weight="400"
    font-stretch="normal"
    units-per-em="1000"
    panose-1="0 0 0 0 0 0 0 0 0 0"
    ascent="800"
    descent="-200"
    x-height="471"
    cap-height="686"
    bbox="-209.999 -214.002 1121.56 879"
    underline-thickness="50"
    underline-position="-100"
    unicode-range="U+000A-U+20AC"
  />
<missing-glyph horiz-adv-x="0" 
 />
    <glyph glyph-name=".notdef" unicode="&#xa;" horiz-adv-x="0" 
 />
    <glyph glyph-name=".notdef" horiz-adv-x="0" 
 />
    <glyph glyph-name="space" unicode=" " horiz-adv-x="277" 
 />
    <glyph glyph-name="exclam" unicode="!" horiz-adv-x="271" 
d="M90 19c-12.667 12.667 -19 27.667 -19 45c0 18 6.33301 33.333 19 46s28 19 46 19c17.333 0 32.333 -6.33301 45 -19s19 -28 19 -46c0 -17.333 -6.33301 -32.333 -19 -45s-27.667 -19 -45 -19c-18 -0 -33.333 6.33301 -46 19zM131 171
c0 19.333 -13.333 91.666 -40 216.999c-27.333 125.333 -41 224.666 -41 297.999h171c0 -73.333 -13.333 -172.666 -40 -297.999c-27.333 -125.333 -41 -197.666 -41 -216.999h-9z" />
    <glyph glyph-name="quotedbl" unicode="&#x22;" horiz-adv-x="421" 
d="M160 667c12.667 -12.667 19 -28 19 -46l-1 -6c-1.33301 -34 -14.333 -63 -39 -87c-25.333 -23.333 -55 -35 -89 -35v8c18.667 0 33.667 5 45 15c12.667 10 19 23.667 19 41c-17.333 0 -32.333 6.33301 -45 19s-19 27.667 -19 45c0 18 6.33301 33.333 19 46
s27.667 19 45 19c18 0 33.333 -6.33301 46 -19zM353 667c12 -12.667 17.999 -28 17.999 -46v-6c-1.33301 -34 -14.666 -63 -39.999 -87c-24.667 -23.333 -54 -35 -88 -35v8c18 0 33 5 45 15c12.667 10 19 23.667 19 41c-17.333 0 -32.333 6.33301 -45 19s-19 27.667 -19 45
c0 18 6.33301 33.333 19 46s27.667 19 45 19c18 0 33.333 -6.33301 46 -19z" />
    <glyph glyph-name="numbersign" unicode="#" horiz-adv-x="641" 
d="M479 471h99v-8h-104l-106 -203h210v-8h-215l-132 -252h-10l133 252h-162l-132 -252h-10l132 252h-118v8h123l106 203h-229v8h234l112 215h10l-113 -215h162l113 215h9zM465 463h-162l-106 -203h161z" />
    <glyph glyph-name="dollar" unicode="$" horiz-adv-x="531" 
d="M487 282c20 -44.667 23.667 -89.3311 11 -133.998c-12.667 -45.333 -39 -82.333 -79 -111c-43.333 -30.667 -96 -46 -158 -46v-120h-9v121c-46.667 0 -84 5.33301 -112 16c-25.333 8.66699 -58 27.667 -98 57l5 7c38.667 -28.667 70.334 -47.334 95.001 -56.001
c28 -10 64.667 -15.333 110 -16v272l-77 38l-51 27c-45.333 26 -75.333 60 -90 102c-13.333 38.667 -12.333 78 3 118c15.333 39.333 41.666 71.666 78.999 96.999c40 26.667 85.333 40 136 40v120h9v-120c42.667 0 77.667 -4.66699 105 -14s58.666 -27 93.999 -53l-5 -7
c-34.667 25.333 -65 42.666 -91 51.999c-26.667 8.66699 -61 13.334 -103 14.001v-235l116 -52c52.667 -30.667 89.334 -69.667 110.001 -117zM252 455.003l0.00195312 231c-28.667 0 -54.334 -7 -77.001 -21c-22 -14 -37.333 -31.667 -46 -53
c-20.667 -50.667 1.66602 -94.667 66.999 -132zM261.002 0.00292969c39.333 0 72.001 9.33301 98.001 28c23.333 16.667 38.333 38.667 45 66c5.33301 26 1.66602 51.667 -11.001 77c-13.333 26.667 -35 47.667 -65 63l-67 33v-267z" />
    <glyph glyph-name="percent" unicode="%" horiz-adv-x="609" 
d="M608 686v-9l-484 -677h-124v9l484 677h124zM36 480c-22.667 22.667 -34 50.667 -34 84c0 32.667 11.333 60.667 34 84c24.667 25.333 58.334 38 101.001 38s76.667 -12.667 102 -38c22 -23.333 33 -51.333 33 -84c0 -33.333 -11 -61.333 -33 -84
c-25.333 -26 -59.333 -39 -102 -39s-76.334 13 -101.001 39zM107 642c-6.66699 -21.333 -10 -47.333 -10 -78c0 -31.333 3.33301 -57.666 10 -78.999c7.33301 -23.333 17.333 -35 30 -35s22.667 11.667 30 35c6.66699 21.333 10 47.666 10 78.999
c0 30.667 -3.33301 56.667 -10 78c-7.33301 23.333 -17.333 35 -30 35s-22.667 -11.667 -30 -35zM573 206c22.667 -22.667 34 -50.667 34 -84c0 -32.667 -11.333 -60.667 -34 -84c-25.333 -25.333 -59.333 -38 -102 -38s-76.334 12.667 -101.001 38
c-22.667 23.333 -34 51.333 -34 84c0 33.333 11.333 61.333 34 84c24.667 25.333 58.334 38 101.001 38s76.667 -12.667 102 -38zM501 44c6.66699 21.333 10 47.333 10 78s-3.33301 56.667 -10 78c-7.33301 24 -17.333 36 -30 36s-22.667 -12 -30 -36
c-6.66699 -21.333 -10 -47.333 -10 -78s3.33301 -56.667 10 -78c7.33301 -23.333 17.333 -35 30 -35s22.667 11.667 30 35z" />
    <glyph glyph-name="ampersand" unicode="&#x26;" horiz-adv-x="741" 
d="M691 0c-73.333 0 -133.33 17.335 -179.997 52.002c-43.333 -34.667 -99.333 -52 -168 -52c-96.667 0 -171.334 24 -224.001 72c-45.333 42 -68.333 95 -69 159c-0.666992 61.333 19 114.666 59 159.999c42.667 48 96.667 72 162 72v8c-38.667 0 -69 11.333 -91 34
c-20 21.333 -27.333 46 -22 74c5.33301 29.333 24.333 53.666 57 72.999c38 22.667 88.667 34 152 34c48.667 0 84.667 -12 108 -36l-6 -6c-22 22 -51.667 33 -89 33c-35.333 0 -63.333 -10.667 -84 -32c-18.667 -19.333 -27.334 -43 -26.001 -71s12.333 -51.333 33 -70
c23.333 -22 54.666 -33 93.999 -33v-8c-56 0 -101.333 -23.333 -136 -70c-30.667 -41.333 -47 -92.333 -49 -153c-2 -60 10.667 -111.333 38 -154c30 -46 71.667 -69 125 -69c52 0 95.333 13.667 130 41c-47.333 38 -71 90 -71 156v38h-43v8h43l163 129h8v-129h86v-8h-86
v-158c0 -23.333 8.33301 -43.333 25 -60s37 -25 61 -25v-9z" />
    <glyph glyph-name="quotesingle" unicode="'" horiz-adv-x="129" 
d="M128 615c-1.33301 -34 -14.333 -63 -39 -87c-25.333 -23.333 -55 -35 -89 -35v8c18.667 0 33.667 5 45 15c12.667 10 19 23.667 19 41c-17.333 0 -32.333 6.33301 -45 19s-19 27.667 -19 45c-0 18 6.33301 33.333 19 46s27.667 19 45 19c18 0 33.333 -6.33301 46 -19
s19 -28 19 -46z" />
    <glyph glyph-name="parenleft" unicode="(" horiz-adv-x="357" 
d="M50 429c0 70.667 25 131 75 181c50.667 50.667 111.334 76 182.001 76v-9c-23.333 0 -43.333 -8.33301 -60 -25c-17.333 -16.667 -26 -37 -26 -61v-711c0 -24 8.66699 -44.333 26 -61c16.667 -16.667 36.667 -25 60 -25v-8c-70.667 0 -131.334 25 -182.001 75
c-50 50 -75 110.667 -75 182v386z" />
    <glyph glyph-name="parenright" unicode=")" horiz-adv-x="357" 
d="M307 43c0 -71.333 -25 -132 -75 -182s-110.667 -75 -182 -75v8c24 0 44.333 8.33301 61 25s25 37 25 61v711c0 24 -8.33301 44.333 -25 61s-37 25 -61 25v9c71.333 0 132 -25.333 182 -76c50 -50 75 -110.333 75 -181v-386z" />
    <glyph glyph-name="asterisk" unicode="*" horiz-adv-x="445" 
d="M229 503l103 -140l-7 -5l-102 140l-103 -140l-7 5l103 140l-166 54l3 8l165 -53v174h9v-174l165 53l3 -8z" />
    <glyph glyph-name="plus" unicode="+" horiz-adv-x="400" 
d="M350 252h-146v-146h-8v146h-146v8h146v146h8v-146h146v-8z" />
    <glyph glyph-name="comma" unicode="," horiz-adv-x="229" 
d="M177 58c-1.33301 -34 -14.333 -63 -39 -87c-25.333 -23.333 -55 -35 -89 -35v8c18.667 0 33.667 5 45 15c12.667 10 19 23.667 19 41c-17.333 -0 -32.333 6.33301 -45 19s-19 27.667 -19 45c0 18 6.33301 33.333 19 46s27.667 19 45 19c18 0 33.333 -6.33301 46 -19
s19 -28 19 -46z" />
    <glyph glyph-name="hyphen" unicode="-" horiz-adv-x="314" 
d="M50 252v8h214v-8h-214z" />
    <glyph glyph-name="period" unicode="." horiz-adv-x="229" 
d="M69 19c-12.667 12.667 -19 27.667 -19 45c0 18 6.33301 33.333 19 46s27.667 19 45 19c18 0 33.333 -6.33301 46 -19s19 -28 19 -46c0 -17.333 -6.33301 -32.333 -19 -45s-28 -19 -46 -19c-17.333 -0 -32.333 6.33301 -45 19z" />
    <glyph glyph-name="slash" unicode="/" horiz-adv-x="708" 
d="M658 677l-484 -677h-124v9l484 677h124v-9z" />
    <glyph glyph-name="zero" unicode="0" horiz-adv-x="604" 
d="M510 579c46 -64.667 69 -143.334 69 -236.001s-23 -171.334 -69 -236.001c-51.333 -71.333 -120.666 -107 -207.999 -107s-156.666 35.667 -207.999 107c-46 64.667 -69 143.334 -69 236.001s23 171.334 69 236.001c51.333 71.333 120.666 107 207.999 107
s156.666 -35.667 207.999 -107zM382 113c18 62.667 26.999 139.334 26.999 230.001s-9 167.334 -27 230.001c-20 69.333 -46.667 104 -80 104s-59.666 -34.667 -78.999 -104c-18 -62.667 -27 -139.334 -27 -230.001s8.66699 -167.334 26 -230.001
c20 -69.333 46.667 -104 80 -104s60 34.667 80 104z" />
    <glyph glyph-name="one" unicode="1" horiz-adv-x="283" 
d="M232 686v-686h-171v582l-82 -47l-4 7l249 144h8z" />
    <glyph glyph-name="two" unicode="2" horiz-adv-x="467" 
d="M276 532c0 40.667 -10.333 72.667 -31 96c-21.333 25.333 -52 38 -92 38c-44 0 -84.667 -18.667 -122 -56l-6 6c46 46.667 105.333 70 178 70c77.333 0 137.333 -19 180 -57c38.667 -34 58 -77.333 58 -130c0 -34.667 -9.33301 -69 -28 -103l-203 -387h231v-9h-402v9
l194 370c28.667 54 43 105 43 153z" />
    <glyph glyph-name="three" unicode="3" horiz-adv-x="498" 
d="M236 471c74.667 0 134.001 -24.332 178.001 -72.999c41.333 -45.333 61 -99.333 59 -162c-2.66699 -64.667 -27.334 -118.667 -74.001 -162c-54 -49.333 -126.667 -74 -218 -74c-78.667 0 -139 21 -181 63l6 6c34.667 -34.667 82 -52 142 -52c54 0 96 23 126 69
c27.333 41.333 41 92.666 41 153.999c0 59.333 -12.667 110.333 -38 153c-27.333 46.667 -63.333 70 -108 70v8l206 206h-277v9h289v-9l-205 -206h54z" />
    <glyph glyph-name="four" unicode="4" horiz-adv-x="409" 
d="M408 252h-43v-252h-146c-16.667 16.667 -25 37 -25 61v191h-194v8l357 426h8v-426h43v-8zM194 260v218l-183 -218h183z" />
    <glyph glyph-name="five" unicode="5" horiz-adv-x="498" 
d="M236 471c74.667 0 134.002 -24.333 178.002 -73c41.333 -45.333 61 -99.333 59 -162c-2.66699 -64.667 -27.334 -118.667 -74.001 -162c-54 -49.333 -126.667 -74 -218 -74c-78.667 0 -139 21 -181 63l6 6c34.667 -34.667 82 -52 142 -52c55.333 0 98 23 128 69
c27.333 42 39.666 93.333 36.999 154c-3.33301 60 -20.333 111 -51 153c-34.667 46.667 -79.667 70 -135 70h-86v8l57 215h300v-9h-293l-55 -206h186z" />
    <glyph glyph-name="six" unicode="6" 
d="M486 398c41.333 -44.667 61.334 -98.668 60.001 -162.001c-2 -64 -25.333 -118 -70 -162c-50 -49.333 -116.333 -74 -199 -74c-92 0 -160.667 35.667 -206 107c-40.667 64.667 -54.667 143.334 -42 236.001c13.333 93.333 49.666 172 108.999 236
c67.333 71.333 150.333 107 249 107v-9c-86 0 -146.333 -74 -181 -222c26 10.667 56.333 16 91 16c79.333 0 142.333 -24.333 189 -73zM363.001 77.999c20.667 42.667 30.668 94.001 30.001 154.001c0 61.333 -11 112.666 -33 153.999c-24.667 46.667 -59 70 -103 70
c-16.667 0 -34.334 -4 -53.001 -12c-21.333 -99.333 -25 -196 -11 -290c14.667 -96.667 42.667 -145 84 -145c35.333 0 64 23 86 69z" />
    <glyph glyph-name="seven" unicode="7" horiz-adv-x="472" 
d="M471 677l-227 -677h-167v9l223 668h-300v9h471v-9z" />
    <glyph glyph-name="eight" unicode="8" horiz-adv-x="579" 
d="M362 464c66 -14.667 116.332 -47.334 150.999 -98.001c32 -46.667 45 -99 39 -157c-6.66699 -58 -31.667 -106.333 -75 -145c-48 -42.667 -110.667 -64 -188 -64s-140 21.333 -188 64c-43.333 38.667 -68.333 87 -75 145c-6 58 7 110.333 39 157
c34.667 50.667 85 83.334 151 98.001v6c-41.333 9.33301 -72.333 26 -93 50c-18.667 22.667 -25 47 -19 73c6.66699 26 25.334 47.667 56.001 65c33.333 18.667 76.333 28 129 28s96 -9.33301 130 -28c30 -17.333 48.333 -39 55 -65c6 -26 -0.333008 -50.333 -19 -73
c-20.667 -24 -51.667 -40.667 -93 -50v-6zM235.999 645c-11.333 -19.333 -17 -43.001 -17 -71.001c0 -27.333 6 -50.666 18 -69.999c12.667 -22 30 -33 52 -33s39.667 11 53 33c11.333 18.667 17 42 17 70s-5.66699 51.667 -17 71c-13.333 21.333 -31 32 -53 32
s-39.667 -10.667 -53 -32zM358.999 79.999c15.333 42 23.001 94 23.001 156c0 61.333 -7.66699 113.333 -23 156c-17.333 47.333 -40.666 71 -69.999 71s-52.333 -23.667 -69 -71c-16 -42.667 -24 -94.667 -24 -156c0 -62 7.66699 -114 23 -156
c17.333 -47.333 40.666 -71 69.999 -71s52.666 23.667 69.999 71z" />
    <glyph glyph-name="nine" unicode="9" 
d="M499 579c41.333 -64.667 55.335 -143.333 42.002 -236c-12.667 -93.333 -49 -172 -109 -236c-66.667 -71.333 -149.334 -107 -248.001 -107v9c82 0 141 73.333 177 220c-25.333 -10 -54.333 -15 -87 -15c-80 0 -143 24.667 -189 74c-41.333 44 -61.333 98 -60 162
c2 64 25.333 118 70 162c49.333 49.333 115.666 74 198.999 74c92 0 160.333 -35.667 205 -107zM364.002 240.001c22.667 100.667 27.333 197.666 14 290.999c-13.333 97.333 -41.333 146 -84 146c-36 0 -65 -23.333 -87 -70c-20 -42.667 -30 -93.667 -30 -153
c0.666992 -61.333 12 -112.666 34 -153.999c24.667 -46.667 58.667 -70 102 -70c16 0 33 3.33301 51 10z" />
    <glyph glyph-name="colon" unicode=":" horiz-adv-x="229" 
d="M69 83c-12.667 12.667 -19 28 -19 46c0 17.333 6.33301 32.333 19 45s27.667 19 45 19c18 0 33.333 -6.33301 46 -19s19 -27.667 19 -45c0 -18 -6.33301 -33.333 -19 -46s-28 -19 -46 -19c-17.333 0 -32.333 6.33301 -45 19zM69 340c-12.667 12.667 -19 28 -19 46
c0 17.333 6.33301 32.333 19 45s27.667 19 45 19c18 0 33.333 -6.33301 46 -19s19 -27.667 19 -45c0 -18 -6.33301 -33.333 -19 -46s-28 -19 -46 -19c-17.333 0 -32.333 6.33301 -45 19z" />
    <glyph glyph-name="semicolon" unicode=";" horiz-adv-x="229" 
d="M69 340c-12.667 12.667 -19 28 -19 46c0 17.333 6.33301 32.333 19 45s27.667 19 45 19c18 0 33.333 -6.33301 46 -19s19 -27.667 19 -45c0 -18 -6.33301 -33.333 -19 -46s-28 -19 -46 -19c-17.333 0 -32.333 6.33301 -45 19zM160 174c12.667 -12.667 19 -27.667 19 -45
l-1 -7c-1.33301 -34 -14.333 -62.667 -39 -86c-25.333 -24 -55 -36 -89 -36v9c18.667 0 33.667 4.66699 45 14c12.667 10 19 23.667 19 41c-17.333 0 -32.333 6.33301 -45 19s-19 28 -19 46c0 17.333 6.33301 32.333 19 45s27.667 19 45 19c18 0 33.333 -6.33301 46 -19z
" />
    <glyph glyph-name="equal" unicode="=" horiz-adv-x="400" 
d="M350 295h-300v8h300v-8zM350 209h-300v9h300v-9z" />
    <glyph glyph-name="question" unicode="?" horiz-adv-x="461" 
d="M162 19c-12.667 12.667 -19 27.667 -19 45c0 18 6.33301 33.333 19 46s27.667 19 45 19c18 0 33.333 -6.33301 46 -19c12 -12.667 18 -28 18 -46c0 -17.333 -6 -32.333 -18 -45c-12.667 -12.667 -28 -19 -46 -19c-17.333 -0 -32.333 6.33301 -45 19zM365 662
c46.667 -34 70.001 -80.002 70.001 -138.002c0 -38 -11.667 -74 -35 -108c-15.333 -22 -41 -48.667 -77 -80l-21 -18l-20 -19c-14.667 -13.333 -26.667 -25.666 -36 -36.999c-23.333 -29.333 -35 -59.666 -35 -90.999h-8c0 69.333 13.667 138 41 206
c28 68 42 122.333 42 163c0 79.333 -31.667 126.666 -95 141.999c-26.667 6.66699 -54.334 5.66699 -83.001 -3c-29.333 -9.33301 -55 -24.666 -77 -45.999l-6 6c46 46 107.667 69 185 69c61.333 0 113 -15.333 155 -46z" />
    <glyph glyph-name="at" unicode="@" horiz-adv-x="1171" 
d="M404 231c19.333 18.667 49.666 37.332 90.999 55.999l24 11l24 10c18 8 32.333 15.333 43 22c27.333 16.667 41 35.667 41 57c0 23.333 -8 42.333 -24 57c-15.333 14 -34.666 21 -57.999 21c-48 0 -86.333 -14.333 -115 -43l-6 6c34.667 34.667 81.667 52 141 52
c80 0 143 -24 189 -72c42 -44 63 -100 63 -168v-171c0 -14.667 3.33301 -27.667 10 -39c10 -14 24 -21 42 -21c28 0 52.333 34.667 73 104c20.667 72.667 26 149.334 16 230.001c-11.333 95.333 -43.666 172 -96.999 230c-64 69.333 -153.333 104 -268 104
c-118.667 0 -213 -46 -283 -138c-62.667 -82.667 -94.334 -183.667 -95.001 -303s30 -220.333 92 -303c68.667 -92 162 -138.333 280 -139c172.667 0.666992 308 49.667 406 147l6 -6c-99.333 -99.333 -236.666 -149 -411.999 -149h-2c-174.667 0 -311.667 49.667 -411 149
c-63.333 63.333 -102.666 138.666 -117.999 225.999c-14.667 84.667 -4.33398 166.667 30.999 246c37.333 82.667 97 148.334 179 197.001c90.667 54.667 199.667 82 327 82c145.333 0 265.666 -35.667 360.999 -107c82.667 -62.667 135 -141.334 157 -236.001
c21.333 -90 10.333 -168.667 -33 -236c-45.333 -71.333 -115 -107 -209 -107h-199c-12.667 13.333 -20.667 29 -24 47c-32.667 -31.333 -75 -47 -127 -47c-42.667 0 -78.667 11.333 -108 34c-32.667 24 -49 57 -49 99c0 38.667 14 71.334 42 98.001zM617 325.998
c-4 -6.66699 -9.33301 -15.002 -16 -25.002l-9 -14l-9 -13c-32.667 -49.333 -49 -100.666 -49 -153.999c0 -52 18.333 -80 55 -84c14.667 -1.33301 27.667 2.66699 39 12s17 22 17 38v154c0 64 -3.33301 111 -10 141c-0.666992 -17.333 -6.66699 -35.666 -18 -54.999z" />
    <glyph glyph-name="A" unicode="A" horiz-adv-x="539" 
d="M300 252h-224l-67 -252h-9l184 686l160 43l195 -729h-172zM298 260l-110 410l-110 -410h220z" />
    <glyph glyph-name="B" unicode="B" horiz-adv-x="639" 
d="M374 424c74.667 0 134.333 -22.333 179 -67c40.667 -41.333 61 -91.666 61 -150.999c0 -60.667 -22 -110.334 -66 -149.001c-42 -38 -94.333 -57 -157 -57h-341v686h324c38.667 0 71 -10.667 97 -32c26.667 -22 40 -51.333 40 -88c0 -38 -13.333 -69.667 -40 -95
s-59 -38 -97 -38v-9zM220.999 433c50.667 0 89.999 12.667 117.999 38c24.667 22.667 36.334 50.667 35.001 84c-1.33301 32.667 -15 60.667 -41 84c-28.667 25.333 -66 38 -112 38v-244zM220.998 9c76.667 0 133.667 21.668 171 65.001
c32.667 37.333 45.667 84.666 39 141.999c-6 55.333 -27.667 103 -65 143c-40.667 43.333 -89 65 -145 65v-415z" />
    <glyph glyph-name="C" unicode="C" horiz-adv-x="635" 
d="M634 83c-61.333 -61.333 -141.002 -91.999 -239.002 -91.999c-118.667 0 -212 36.667 -280 110c-60.667 65.333 -90.667 146 -90 242c0.666992 94.667 30 175 88 241c64 73.333 148.667 110 254 110c68 0 128 -9.66699 180 -29c16.667 -6.66699 31.667 -13.667 45 -21
c4 -2.66699 7.66699 -5 11 -7l3 -3l2 -1l-6 -6c-14 11.333 -34.667 21.333 -62 30c-30.667 9.33301 -62 14.333 -94 15c-79.333 2 -141.666 -31.333 -186.999 -100c-40 -60.667 -59.667 -136.334 -59 -227.001c0.666992 -88.667 20.667 -164.667 60 -228
c43.333 -68.667 100 -103 170 -103c38.667 0 78.334 8.66699 119.001 26c34.667 14.667 61 31 79 49z" />
    <glyph glyph-name="D" unicode="D" horiz-adv-x="660" 
d="M264 686c117.333 0 209.999 -35.666 277.999 -106.999c61.333 -64 92.333 -142.667 93 -236c0.666992 -92.667 -27.666 -171.334 -84.999 -236.001c-64 -71.333 -149.333 -107 -256 -107h-244v686h214zM220.999 9.00098c80.667 0 141.669 34.667 183.002 104
c37.333 61.333 53.666 138 48.999 230c-4.66699 89.333 -27.334 166 -68.001 230c-44 69.333 -98.667 104 -164 104v-668z" />
    <glyph glyph-name="E" unicode="E" horiz-adv-x="458" 
d="M458 677h-237v-244h129v-9h-129v-415h237v-9h-408v686h408v-9z" />
    <glyph glyph-name="F" unicode="F" horiz-adv-x="458" 
d="M458 677h-237v-244h129v-9h-129v-424h-171v686h408v-9z" />
    <glyph glyph-name="G" unicode="G" horiz-adv-x="701" 
d="M108 99c-55.333 65.333 -83 145.998 -83 241.998c0 95.333 26.333 176.333 79 243c58 73.333 134.667 110 230 110c62.667 0 108.667 -4 138 -12c28.667 -8 62.667 -26.333 102 -55l-5 -7c-35.333 26 -65.333 43 -90 51c-26 8.66699 -63.333 13.334 -112 14.001
c-55.333 0 -97.666 -35.667 -126.999 -107c-26 -63.333 -37.667 -141.666 -35 -234.999c2.66699 -92 18 -170.667 46 -236c30.667 -71.333 69 -107 115 -107c39.333 -0 69.333 18.333 90 55c8 13.333 14 28.333 18 45c3.33301 14 5 27 5 39v294h171v-347
c-14.667 -16.667 -37.334 -33 -68.001 -49c-62.667 -32.667 -135.667 -49 -219 -49c-108 0 -193 37 -255 111z" />
    <glyph glyph-name="H" unicode="H" horiz-adv-x="657" 
d="M606 686v-686h-171v424h-215v-424h-171v686h171v-253h215v253h171z" />
    <glyph glyph-name="I" unicode="I" horiz-adv-x="258" 
d="M214 10h43v-10h-257v10h43v667h-43v9h257v-9h-43v-667z" />
    <glyph glyph-name="J" unicode="J" horiz-adv-x="283" 
d="M232 43c0 -71.333 -25 -132 -75 -182s-110.667 -75 -182 -75v8c24 0 44.333 8.33301 61 25s25 37 25 61v806h171v-643z" />
    <glyph glyph-name="K" unicode="K" horiz-adv-x="584" 
d="M338 486l4 -6.99902c2.66699 -6 5.66699 -12.333 9 -19l28 -56l77 -156c73.333 -146 115.666 -228.667 126.999 -248h-164c-14.667 28 -46.667 93.667 -96 197l-52 110c-6.66699 13.333 -13 26.666 -19 39.999l-6 14c-2 3.33301 -3.66699 6.33301 -5 9l-20 -26v-344h-171
v686h171v-328l259 328h8l-152 -195c0.666992 -1.33301 1.33398 -3 2.00098 -5z" />
    <glyph glyph-name="L" unicode="L" horiz-adv-x="458" 
d="M458 0h-408v686h171v-677h237v-9z" />
    <glyph glyph-name="M" unicode="M" horiz-adv-x="879" 
d="M828 686v-686h-172v666l-295 -666h-8l-295 666v-666h-9v686h171l218 -492l218 492h172z" />
    <glyph glyph-name="N" unicode="N" horiz-adv-x="607" 
d="M557 686v-686h-9l-489 674v-674h-9v686h211l287 -397v397h9z" />
    <glyph glyph-name="O" unicode="O" horiz-adv-x="721" 
d="M611 584c56 -65.333 84 -145.666 84 -240.999s-28 -176 -84 -242c-62 -73.333 -146 -110 -252 -110c-105.333 0 -189 36.667 -251 110c-56 66 -84 146.667 -84 242s28 175.666 84 240.999c62 73.333 145.667 110 251 110c106 0 190 -36.667 252 -110zM468 107
c24.667 64.667 37 143.334 37 236.001s-12.333 171.334 -37 236.001c-26.667 71.333 -63 107 -109 107c-45.333 0 -81.666 -35.667 -108.999 -107c-24 -64.667 -36 -143.334 -36 -236.001s12 -171.334 36 -236.001c27.333 -71.333 63.666 -107 108.999 -107
c46 0 82.333 35.667 109 107z" />
    <glyph glyph-name="P" unicode="P" horiz-adv-x="582" 
d="M376 686c58.667 0 104.667 -18.332 138 -54.999c30 -32 44 -71.667 42 -119c-2 -46.667 -19 -86.334 -51 -119.001c-36 -36 -83.667 -54 -143 -54l-141 -1v-338h-171v686h326zM221 346.001c56.667 0 100.665 17.332 131.998 51.999
c28.667 30.667 42.334 68.667 41.001 114c-1.33301 44.667 -16.666 82.334 -45.999 113.001c-32.667 34.667 -75 52 -127 52v-331z" />
    <glyph glyph-name="Q" unicode="Q" horiz-adv-x="717" 
d="M338 -8c-100.667 5.33301 -180 44.998 -238 118.998c-52.667 66.667 -78 146.667 -76 240c2 94 30.667 173 86 237c62 70.667 145 106 249 106c94.667 0 172 -29.667 232 -89c54.667 -53.333 88 -121.666 100 -204.999c11.333 -81.333 0 -157.333 -34 -228
c-36.667 -75.333 -92.334 -127.666 -167.001 -156.999l22 -43c66.667 -118.667 139.334 -178 218.001 -178v-8c-92 0 -164.333 9.66699 -217 29c-66.667 25.333 -117.667 70 -153 134zM244 578.998c-25.333 -64.667 -38 -143.334 -38 -236.001s12.667 -171.334 38 -236.001
c28.667 -71.333 67 -107 115 -107c48.667 0 87.334 35.667 116.001 107c25.333 64.667 38 143.334 38 236.001s-12.667 171.334 -38 236.001c-28.667 71.333 -67.334 107 -116.001 107c-48 0 -86.333 -35.667 -115 -107z" />
    <glyph glyph-name="R" unicode="R" horiz-adv-x="591" 
d="M591 0h-189.001l-154 338h-27v-338h-171v686h326c54.667 0 98.334 -16 131.001 -48c30 -28.667 46.333 -64.667 49 -108s-8.33301 -82 -33 -116c-27.333 -37.333 -65.333 -61 -114 -71c16 -32 76.667 -146.333 182 -343zM220.999 346
c54.667 -0.666992 96.999 16.334 126.999 51.001c27.333 30 40 67.667 38 113c-1.33301 45.333 -16 83.666 -44 114.999c-31.333 34.667 -71.666 52 -120.999 52v-331z" />
    <glyph glyph-name="S" unicode="S" horiz-adv-x="531" 
d="M486 282c20 -44.667 23.6709 -89.332 11.0039 -133.999c-12.667 -45.333 -39 -82.333 -79 -111c-43.333 -30.667 -96 -46 -158 -46c-50.667 0 -90.334 5.33301 -119.001 16c-26 8.66699 -59.333 28 -100 58l5 7c40 -29.333 72.667 -48.333 98 -57
c28 -10 66.667 -15 116 -15c39.333 0 72 9.33301 98 28c23.333 16.667 38.333 38.667 45 66c5.33301 26 1.66602 51.667 -11.001 77c-13.333 26.667 -35 47.667 -65 63c-116.667 57.333 -184.667 91.666 -204 102.999c-45.333 26 -75.333 60 -90 102
c-13.333 38.667 -12.333 78 3 118c15.333 39.333 41.666 71.666 78.999 96.999c40 26.667 85.333 40 136 40c46 0 83 -4.33301 111 -13c28.667 -9.33301 61 -27.333 97 -54l-5 -7c-36 26.667 -67.333 44.334 -94 53.001s-63 13 -109 13c-28.667 0 -54.334 -7 -77.001 -21
c-22 -14 -37.333 -31.667 -46 -53c-20.667 -50.667 1.66602 -94.667 66.999 -132l181 -81c52.667 -30.667 89.334 -69.667 110.001 -117z" />
    <glyph glyph-name="T" unicode="T" horiz-adv-x="464" 
d="M-25 686h514v-9h-171v-677h-172v677h-171v9z" />
    <glyph glyph-name="U" unicode="U" horiz-adv-x="623" 
d="M564 686h9.00098v-433c0 -72 -25.667 -133.667 -77 -185c-50.667 -51.333 -112.334 -77 -185.001 -77c-72 0 -133.333 25.667 -184 77c-51.333 51.333 -77 113 -77 185v433h171v-453c0 -56 18 -100.667 54 -134c32.667 -30 72 -44.333 118 -43
c46.667 1.33301 86 18 118 50c35.333 36.667 53 85.667 53 147v433z" />
    <glyph glyph-name="V" unicode="V" horiz-adv-x="539" 
d="M539 686l-184 -686h-171l-184 686h171l180 -670l179 670h9z" />
    <glyph glyph-name="W" unicode="W" horiz-adv-x="882" 
d="M882 686l-184 -686h-171l-86 320l-86 -320h-171l-184 686h171l180 -670l86 320l-94 350h171l180 -670l179 670h9z" />
    <glyph glyph-name="X" unicode="X" horiz-adv-x="601" 
d="M234 304l-213 -304h-10l218 312l1 -2l-230 376h180l162 -265l185 265h11l-191 -273l253 -413h-180z" />
    <glyph glyph-name="Y" unicode="Y" horiz-adv-x="552" 
d="M552 686l-190 -430v-256h-172v256l-190 430h171l186 -420l186 420h9z" />
    <glyph glyph-name="Z" unicode="Z" horiz-adv-x="523" 
d="M514 0h-514v9l351 668h-342v9h514v-9l-352 -668h343v-9z" />
    <glyph glyph-name="bracketleft" unicode="[" horiz-adv-x="357" 
d="M50 686h257v-9h-86v-883h86v-8h-257v900z" />
    <glyph glyph-name="backslash" unicode="\" horiz-adv-x="708" 
d="M50 686h124l484 -677v-9h-124l-484 677v9z" />
    <glyph glyph-name="bracketright" unicode="]" horiz-adv-x="357" 
d="M307 -214h-257v8h86v883h-86v9h257v-900z" />
    <glyph glyph-name="underscore" unicode="_" horiz-adv-x="443" 
d="M50 0v9h343v-9h-343z" />
    <glyph glyph-name="a" unicode="a" horiz-adv-x="530" 
d="M415 408c42 -44 63.001 -100.002 63.001 -168.002v-240h-146c-13.333 13.333 -21.333 29 -24 47c-32.667 -31.333 -75 -47 -127 -47c-42.667 0 -78.667 11.333 -108 34c-32.667 24 -49 57 -49 99c0 38.667 13.667 71.334 41 98.001
c19.333 18.667 49.666 37.334 90.999 56.001l25 11l24 10c18 8 32 15.333 42 22c28 16.667 42 35.667 42 57c0 23.333 -8 42.333 -24 57c-15.333 14 -34.666 21 -57.999 21c-48 0 -86.667 -14.333 -116 -43l-6 6c35.333 34.667 82.666 52 141.999 52
c80 0 142.667 -24 188 -72zM307.001 239.998c0 64 -3.33398 110.998 -10.001 140.998c-1.33301 -17.333 -7.33301 -35.666 -18 -54.999c-4 -6.66699 -9.33301 -15 -16 -25l-9 -14l-10 -13c-32.667 -49.333 -49 -100.666 -49 -153.999c0 -52 18.667 -80 56 -84
c14.667 -1.33301 27.334 2.66699 38.001 12c12 9.33301 18 22 18 38v154z" />
    <glyph glyph-name="b" unicode="b" horiz-adv-x="563" 
d="M489 396c34 -46.667 49.667 -101.667 47 -165c-2 -66 -24.333 -121 -67 -165c-49.333 -50 -117.333 -75 -204 -75c-74 0 -130.333 22 -169 66c-31.333 36 -47 80 -47 132v497h146c16.667 -16.667 25 -37 25 -61v-198c32 29.333 74.333 44 127 44
c58 0 105.333 -25 142 -75zM340 69c16.667 41.333 25.333 91.668 26 151.001c1.33301 59.333 -5.66699 109.666 -21 150.999c-17.333 46 -41 69 -71 69c-14 0 -26.333 -5.33301 -37 -16c-11.333 -11.333 -17 -24.333 -17 -39v-261c0.666992 -24.667 2 -45 4 -61
c5.33301 -42 19 -63 41 -63c31.333 0 56.333 23 75 69z" />
    <glyph glyph-name="c" unicode="c" horiz-adv-x="442" 
d="M226 391c-21.333 -42 -31.668 -93 -31.001 -153c0 -60.667 11 -111.667 33 -153c24.667 -46.667 57.334 -70 98.001 -70c38 0 74.333 17.333 109 52l6 -6c-46 -46.667 -105.333 -70 -178 -70c-74.667 0 -134 25.667 -178 77c-40 45.333 -60 101.333 -60 168
c0 66 20 122 60 168c44 50.667 103.333 76 178 76c72.667 0 132 -23 178 -69l-6 -6c-37.333 37.333 -75 56 -113 56c-40.667 0 -72.667 -23.333 -96 -70z" />
    <glyph glyph-name="d" unicode="d" horiz-adv-x="562" 
d="M511 686l-0.000976562 -686h-146c-13.333 12.667 -21.333 28 -24 46c-32 -30.667 -74.667 -46 -128 -46c-59.333 0 -106.666 24.667 -141.999 74c-31.333 44 -47 98 -47 162s15.667 118 47 162c34.667 48.667 82 73 142 73c52.667 0 95 -14.667 127 -44v259h171z
M322.999 48c11.333 10.667 17.001 23.334 17.001 38.001v299c0 14.667 -5.66699 27.667 -17 39c-10.667 10.667 -23 16 -37 16c-28 0 -50.333 -21.333 -67 -64c-16 -38.667 -24.333 -85.334 -25 -140.001c-0.666992 -56 6.66602 -103 21.999 -141
c16.667 -42.667 40 -64 70 -64c14 0 26.333 5.66699 37 17z" />
    <glyph glyph-name="e" unicode="e" horiz-adv-x="541" 
d="M450 67l6 -5.99902c-46 -46.667 -105.333 -70 -178 -70c-81.333 0 -145.333 25.667 -192 77c-42 45.333 -62.667 101.333 -62 168c0.666992 66 21.667 122 63 168c46 50.667 107 76 183 76c69.333 0 128.333 -24.333 177 -73c45.333 -46 68 -97.667 68 -155h-323
c0.666992 -82.667 12 -142.334 34 -179.001c22.667 -38 61 -57 115 -57c38.667 0 75 17 109 51zM192 260.001h153c-0.666992 140.667 -25.667 211 -75 211c-50.667 0 -76.667 -70.333 -78 -211z" />
    <glyph glyph-name="f" unicode="f" horiz-adv-x="293" 
d="M319 677c-24 0 -44.333 -8.33301 -61 -25s-25 -37 -25 -61v-120h86v-8h-86v-420c0 -71.333 -25 -132 -75 -182s-110.667 -75 -182 -75v8c24 0 44.333 8.33301 61 25s25 37 25 61v549c0 10.667 0.666992 22 2 34h-45v8h46c10.667 61.333 39.667 112.333 87 153
c48 41.333 103.667 62 167 62v-9z" />
    <glyph glyph-name="g" unicode="g" horiz-adv-x="540" 
d="M221 11c10.667 -2 27.667 -4.66602 51 -7.99902l29 -4l30 -5c106.667 -17.333 160 -54.333 160 -111c0 -26 -17.333 -47.667 -52 -65c-42 -21.333 -102.333 -32 -181 -32c-48.667 0 -90 9 -124 27c-34.667 18.667 -52 41 -52 67c0 23.333 14.333 43.666 43 60.999
c-28.667 17.333 -43 39.333 -43 66c0 40.667 41.667 65.667 125 75c-62.667 11.333 -110.667 39 -144 83c-30.667 39.333 -43.334 84 -38.001 134c5.33301 50.667 28.333 92.667 69 126c44.667 36.667 103 55 175 55c27.333 0 53 -3 77 -9h125v-8h-96
c52 -18.667 90.333 -49.667 115 -93c22.667 -40.667 29.334 -83.667 20.001 -129c-10 -46.667 -34.667 -84.667 -74 -114c-44 -33.333 -99.667 -50 -167 -50c-65.333 0 -98 -12.667 -98 -38c0 -12 16.667 -21.333 50 -28zM210 411.001c-13.333 -36 -20 -80 -20 -132
c0 -52.667 6.66699 -97 20 -133c14.667 -40 34.334 -60 59.001 -60s44.334 20 59.001 60c13.333 36 20 80.333 20 133c0 52 -6.66699 96 -20 132c-14.667 40 -34.334 60 -59.001 60s-44.334 -20 -59.001 -60zM362 -155.999c0 18 -28.001 33.999 -84.001 47.999l-19 4l-18 5
l-38 9c-29.333 8.66699 -52.666 17.667 -69.999 27c-28 -16.667 -42 -35.667 -42 -57c0 -23.333 16.333 -43.666 49 -60.999c32.667 -16.667 72 -25 118 -25c69.333 0 104 16.667 104 50z" />
    <glyph glyph-name="h" unicode="h" 
d="M467 437c36 -26.667 54 -65.333 54 -116v-321h-146c-16.667 16.667 -25 37 -25 61v290c0 28 -6.66699 50.333 -20 67c-12 14 -26.667 21.667 -44 23c-17.333 2 -32 -2.33301 -44 -13c-14 -10.667 -21 -25 -21 -43v-385h-171v686h146c16.667 -16.667 25 -37 25 -61v-199
c32 30 74.333 45 127 45c48 0 87.667 -11.333 119 -34z" />
    <glyph glyph-name="i" unicode="i" horiz-adv-x="283" 
d="M220 94c0 -23.333 8.66797 -43.333 26.001 -60c16.667 -16.667 36.667 -25 60 -25v-9c-74.667 0 -135.334 18 -182.001 54c-50 38.667 -75 92 -75 160v257h146c16.667 -16.667 25 -36.667 25 -60v-317zM89.001 555c-12.667 12 -19 27 -19 45s6.33301 33 19 45
c12.667 12.667 28 19 46 19c17.333 0 32.333 -6.33301 45 -19c12.667 -12 19 -27 19 -45s-6.33301 -33 -19 -45c-12.667 -12.667 -27.667 -19 -45 -19c-18 0 -33.333 6.33301 -46 19z" />
    <glyph glyph-name="j" unicode="j" horiz-adv-x="283" 
d="M207 471c16.667 -16.667 25.001 -36.667 25.001 -60v-411c0 -68 -25 -121.333 -75 -160c-46.667 -36 -107.334 -54 -182.001 -54v8c24 0 44.333 8.33301 61 25s25 37 25 61v591h146zM101.001 555c-12.667 12 -19 27 -19 45s6.33301 33 19 45
c12.667 12.667 27.667 19 45 19c18 0 33.333 -6.33301 46 -19c12.667 -12 19 -27 19 -45s-6.33301 -33 -19 -45c-12.667 -12.667 -28 -19 -46 -19c-17.333 0 -32.333 6.33301 -45 19z" />
    <glyph glyph-name="k" unicode="k" horiz-adv-x="516" 
d="M744 -207l-0.00195312 -7.00098c-93.333 0 -166.333 10 -219 30c-67.333 26 -118.666 72.333 -153.999 139l-66 137l-40 83l-15 31c-4 8 -7 14.333 -9 19l-21 -26v-199h-171v686h146c16.667 -16.667 25 -37 25 -61v-413l205 259h9l-96 -122l13 -27l14 -28l29 -59l61 -121
c45.333 -91.333 72 -143.666 80 -156.999c64.667 -109.333 134.334 -164 209.001 -164z" />
    <glyph glyph-name="l" unicode="l" horiz-adv-x="271" 
d="M50 686h146c16.667 -16.667 25 -37 25 -61v-625h-146c-16.667 16.667 -25 37 -25 61v625z" />
    <glyph glyph-name="m" unicode="m" horiz-adv-x="871" 
d="M767 437c36 -26.667 54 -64.999 54 -114.999v-322h-146c-16.667 16.667 -25 37 -25 61v291c0 28 -6.66699 50.333 -20 67c-12 15.333 -26.667 23.666 -44 24.999s-32 -3.66699 -44 -15c-14 -12.667 -21 -30 -21 -52v-377h-146c-16.667 16.667 -25 37 -25 61v291
c0 28 -6.66699 50 -20 66c-12 14 -26.667 22 -44 24c-17.333 1.33301 -32 -3 -44 -13c-14 -11.333 -21 -26 -21 -44v-385h-171v472l146 -1c12.667 -12.667 20.667 -28 24 -46c32 31.333 74.667 47 128 47c72 0 122.667 -23.667 152 -71c30 47.333 79.333 71 148 71
c48 0 87.667 -11.667 119 -35z" />
    <glyph glyph-name="n" unicode="n" 
d="M466 437c36 -26.667 54 -64.999 54 -114.999v-322h-146c-16.667 16.667 -25 37 -25 61v291c0 28 -6.66699 50 -20 66c-12 14 -26.667 22 -44 24c-17.333 1.33301 -32 -3.33398 -44 -14.001c-14 -10.667 -21 -25 -21 -43v-385h-171v472l146 -1
c13.333 -12.667 21.333 -28 24 -46c32 30.667 74.667 46 128 46c48 0 87.667 -11.333 119 -34z" />
    <glyph glyph-name="o" unicode="o" horiz-adv-x="540" 
d="M452 404c41.333 -46 62 -102 62 -168c0 -66.667 -20.667 -122.667 -62 -168c-45.333 -51.333 -106.333 -77 -183 -77c-77.333 0 -138.666 25.667 -183.999 77c-40.667 45.333 -61 101.333 -61 168c0 66 20.333 122 61 168c45.333 50.667 106.666 76 183.999 76
c76.667 0 137.667 -25.333 183 -76zM329 74c13.333 44 19.999 98 19.999 162s-6.66699 118 -20 162c-14.667 48.667 -34.667 73 -60 73s-45.666 -24.333 -60.999 -73c-13.333 -44.667 -20 -98.667 -20 -162c0 -64 7 -118 21 -162c14.667 -49.333 34.667 -74 60 -74
s45.333 24.667 60 74z" />
    <glyph glyph-name="p" unicode="p" horiz-adv-x="562" 
d="M489 398c31.333 -44.667 47 -98.667 47 -162c0 -64 -15.667 -118 -47 -162c-35.333 -49.333 -82.666 -74 -141.999 -74c-52.667 0 -95 15 -127 45v-259h-171v685h146c13.333 -12.667 21.333 -28 24 -46c32 30.667 74.667 46 128 46c59.333 0 106.666 -24.333 141.999 -73
zM341 95c16 38.667 24.332 85.668 24.999 141.001s-6.66602 102 -21.999 140c-16.667 42.667 -40 64 -70 64c-14 0 -26.333 -5.33301 -37 -16c-11.333 -11.333 -17 -24.333 -17 -39v-299c0 -14.667 5.66699 -27.334 17 -38.001c10.667 -11.333 23 -17 37 -17
c28 0 50.333 21.333 67 64z" />
    <glyph glyph-name="q" unicode="q" horiz-adv-x="561" 
d="M455 414c36.667 -37.333 55.001 -81 55.001 -131v-497h-146c-16.667 16.667 -25 36.667 -25 60v199c-32 -30 -74.333 -45 -127 -45c-58 0 -104.667 25 -140 75c-33.333 46.667 -49 101.667 -47 165c2 66 23 121 63 165c45.333 50 108.333 75 189 75
c75.333 0 134.666 -22 177.999 -66zM323.001 52c10.667 8.66699 15.998 20 15.998 34v197c0 68 -4 115.333 -12 142c-9.33301 30.667 -26 46 -50 46c-29.333 0 -53 -22.333 -71 -67c-16 -40.667 -24 -90 -24 -148c0.666992 -59.333 9.33398 -109 26.001 -149
c18.667 -44.667 44.334 -67 77.001 -67c15.333 0 28 4 38 12z" />
    <glyph glyph-name="r" unicode="r" horiz-adv-x="335" 
d="M334 471v-7.99902c-32.667 0 -59.334 -7 -80.001 -21c-22 -14.667 -33 -33.334 -33 -56.001v-386h-171v472l146 -1c14.667 -14 23 -31.333 25 -52c18.667 34.667 56.334 52 113.001 52z" />
    <glyph glyph-name="s" unicode="s" horiz-adv-x="426" 
d="M150 339c11.333 -5.33301 27.335 -11.001 48.002 -17.001l26 -8l28 -8c46 -14 80 -30.333 102 -49c30.667 -27.333 46 -64 46 -110c0 -43.333 -16.333 -79.333 -49 -108c-34.667 -32 -82.334 -48 -143.001 -48c-65.333 0 -116 18.333 -152 55l6 6
c38.667 -38.667 90.667 -55.334 156 -50.001c29.333 2.66699 53 10.667 71 24c19.333 14 29 32.667 29 56c0 29.333 -15.333 52.333 -46 69c-12 6.66699 -27.667 13.334 -47 20.001l-26 9l-28 8c-46.667 14.667 -80.334 30 -101.001 46c-30.667 24 -46 56 -46 96
s15.667 74.333 47 103c33.333 31.333 77 47 131 47c57.333 0 103.333 -17.333 138 -52l-6 -6c-37.333 38 -85 53.667 -143 47c-25.333 -2.66699 -46 -9.66699 -62 -21c-16.667 -13.333 -25 -29.666 -25 -48.999c0 -25.333 15.333 -45.333 46 -60z" />
    <glyph glyph-name="t" unicode="t" horiz-adv-x="291" 
d="M228 94c0 -23.333 8.33496 -43.333 25.002 -60c17.333 -16.667 37.666 -25 60.999 -25v-9c-74.667 0 -135.334 18 -182.001 54c-50 38.667 -75 92 -75 160v249h-43v8h43l163 129h8v-129h86v-8h-86v-369z" />
    <glyph glyph-name="u" unicode="u" 
d="M520 471l-0.000976562 -471h-146c-12.667 12.667 -20.667 28 -24 46c-32 -30.667 -74.667 -46 -128 -46c-48 0 -87.667 11.667 -119 35c-36 26.667 -54 65 -54 115v322l146 -1c16.667 -16.667 25 -36.667 25 -60v-282c0 -52 21.667 -81.333 65 -88
c16.667 -2.66699 31.334 0 44.001 8c13.333 8.66699 20 21 20 37v385h171z" />
    <glyph glyph-name="v" unicode="v" horiz-adv-x="425" 
d="M424 471l-126 -471h-172l-126 471h171l122 -455l123 455h8z" />
    <glyph glyph-name="w" unicode="w" horiz-adv-x="725" 
d="M724 471l-126 -471h-172l-64 240l-64 -240h-172l-126 471h171l122 -455l65 240l-58 215h171l122 -455l123 455h8z" />
    <glyph glyph-name="x" unicode="x" horiz-adv-x="469" 
d="M289 0l-121 197l-137 -197h-11l144 205l-164 266h180l96 -157l111 157h10l-116 -165l188 -306h-180z" />
    <glyph glyph-name="y" unicode="y" 
d="M495 471c16.667 -16.667 25 -36.6689 25 -60.002v-411c0 -68 -25 -121.333 -75 -160c-46.667 -36 -107.334 -54 -182.001 -54c-70 0 -121.667 16.667 -155 50l6 5c13.333 -13.333 33 -23.666 59 -30.999c26.667 -7.33301 52.667 -9.66602 78 -6.99902
c65.333 6.66699 98 38 98 94v148c-32 -30 -74.333 -45 -127 -45c-48 0 -87.667 11.667 -119 35c-36 26.667 -54 65 -54 115v322l146 -1c16.667 -16.667 25 -36.667 25 -60v-282c0 -52 21.667 -81.333 65 -88c16.667 -2.66699 31.334 0 44.001 8c13.333 8.66699 20 21 20 37
v385h146z" />
    <glyph glyph-name="z" unicode="z" horiz-adv-x="411" 
d="M410 463l-239 -454h239v-9h-410v9l239 454h-239v8h410v-8z" />
    <glyph glyph-name="braceleft" unicode="{" horiz-adv-x="443" 
d="M50 240c24 0 44.333 8.33301 61 25s25 37 25 61v103c0 70.667 25 131 75 181c50 50.667 110.667 76 182 76v-9c-24 0 -44.333 -8.33301 -61 -25s-25 -37 -25 -61v-102c0 -59.333 -18 -112.333 -54 -159c-36 -45.333 -82 -75.333 -138 -90v-8c56 -14.667 102 -45 138 -91
s54 -98.667 54 -158v-103c0 -24 8.33301 -44.333 25 -61s37 -25 61 -25v-8c-71.333 0 -132 25 -182 75s-75 110.667 -75 182v103c0 23.333 -8.33301 43.333 -25 60s-37 25 -61 25v9z" />
    <glyph glyph-name="braceright" unicode="}" horiz-adv-x="443" 
d="M307 326c0 -24 8.33301 -44.333 25 -61s37 -25 61 -25v-9c-24 0 -44.333 -8.33301 -61 -25s-25 -36.667 -25 -60v-103c0 -71.333 -25 -132 -75 -182s-110.667 -75 -182 -75v8c24 0 44.333 8.33301 61 25s25 37 25 61v103c0 59.333 18 112 54 158s82 76.333 138 91v8
c-56 14.667 -102 44.667 -138 90c-36 46.667 -54 99.667 -54 159v102c0 24 -8.33301 44.333 -25 61s-37 25 -61 25v9c71.333 0 132 -25.333 182 -76c50 -50 75 -110.333 75 -181v-103z" />
    <glyph glyph-name="uni00A0" unicode="&#xa0;" horiz-adv-x="277" 
 />
    <glyph glyph-name="cent" unicode="&#xa2;" horiz-adv-x="467" 
d="M440 168c-44.667 -44.667 -101.336 -67.6689 -170.003 -69.002v-99h-9v98c-74.667 0.666992 -134 26.334 -178 77.001c-39.333 46 -59 102 -59 168s19.667 121.667 59 167c44 50.667 103.333 76.334 178 77.001v99h9v-99c68.667 -2 125.334 -25 170.001 -69l-6 -7
c-37.333 38 -75 57 -113 57c-40.667 0 -72.667 -23.333 -96 -70c-21.333 -42 -31.666 -93 -30.999 -153c0 -60.667 11 -111.667 33 -153c24.667 -46.667 57.334 -70 98.001 -70c38 0 74.333 17.333 109 52z" />
    <glyph glyph-name="sterling" unicode="&#xa3;" horiz-adv-x="441" 
d="M440 9l-0.00195312 -9.00195h-415v9c31.333 48.667 43.333 131 36 247h-36v9h35l-3 38l-3 39h-29v8h28c-8 110.667 -3.33301 188.334 14 233.001c26.667 68.667 87.334 103 182.001 103c54 0 96 -12 126 -36c28 -22 40.333 -48.333 37 -79
c-3.33301 -32 -22.666 -59.333 -57.999 -82c-39.333 -25.333 -92 -39.333 -158 -42l6 -48l6 -49h160v-8h-159c4 -29.333 7 -55 9 -77h150v-9h-150c9.33301 -109.333 2 -191.666 -22 -246.999h244zM186.998 616.998c-4.66699 -30 -2.66699 -80 6 -150
c54 22.667 85.333 63.667 94 123c4 24 2 44.333 -6 61c-8.66699 17.333 -22 26 -40 26c-30 0 -48 -20 -54 -60z" />
    <glyph glyph-name="yen" unicode="&#xa5;" horiz-adv-x="552" 
d="M365 265h82v-9h-85v-77h85v-9h-85v-170h-172v170h-85v9h85v77h-85v9h82l-187 421h171l186 -420l186 420h9z" />
    <glyph glyph-name="section" unicode="&#xa7;" horiz-adv-x="533" 
d="M373 169c33.333 -33.333 50.001 -72.333 50.001 -117c0 -38.667 -14.333 -71 -43 -97c-32 -28.667 -75 -43 -129 -43c-58.667 0 -104.334 16.333 -137.001 49l5 6c34.667 -34.667 81.667 -49.667 141 -45c60 5.33301 90 29.333 90 72c0 26 -15.667 48.333 -47 67
c-11.333 7.33301 -27.333 15.333 -48 24l-27 12l-28 12c-46.667 21.333 -81 43.333 -103 66c-31.333 32.667 -47 73 -47 121c0 32.667 9 63 27 91c18.667 28.667 44.667 51 78 67c-32.667 26.667 -49 58.667 -49 96c0 36.667 14 68 42 94c30 28 69.333 42 118 42
c52 0 93.667 -15.667 125 -47l-6 -6c-34 34.667 -77 49 -129 43c-52 -5.33301 -78 -26.333 -78 -63c0 -22.667 16 -40.667 48 -54c10.667 -4 27 -9.33301 49 -16l27 -8l29 -9c46.667 -16 81.667 -36 105 -60c31.333 -32.667 47 -77 47 -133
c0 -76 -36.667 -130.667 -110 -164zM385.001 255c0 44.667 -25.333 82.665 -76 113.998c-9.33301 5.33301 -20.666 11.333 -33.999 18l-36 18c-30.667 14.667 -53.334 27.334 -68.001 38.001c-16.667 -16.667 -25 -37.667 -25 -63c0 -38.667 25 -74.667 75 -108
c8.66699 -6 19.667 -13 33 -21l35 -21c29.333 -17.333 52 -32.666 68 -45.999c18.667 18 28 41.667 28 71z" />
    <glyph glyph-name="copyright" unicode="&#xa9;" horiz-adv-x="786" 
d="M378 455c-16 -31.333 -24.002 -69.667 -24.002 -115c0.666992 -44.667 9.33398 -82.667 26.001 -114c18 -35.333 42.333 -53 73 -53c24.667 0 51 14 79 42l7 -7c-34.667 -34.667 -79 -52 -133 -52c-56 0 -100.667 19 -134 57c-30 34 -45 76 -45 126
c0 49.333 15 91.333 45 126c33.333 38 78 57 134 57c54 0 98.333 -17.333 133 -52l-7 -7c-29.333 30 -56.666 45 -81.999 45c-30.667 0 -54.667 -17.667 -72 -53zM633.998 584.999c67.333 -66.667 101 -147.334 101 -242.001s-33.667 -175.667 -101 -243
c-66.667 -66.667 -147.334 -100 -242.001 -100s-175.667 33.333 -243 100c-66.667 67.333 -100 148.333 -100 243s33.333 175.334 100 242.001c67.333 67.333 148.333 101 243 101s175.334 -33.667 242.001 -101zM627.998 106.999c65.333 65.333 98 144 98 236
s-32.667 170.667 -98 236s-144 98 -236 98s-170.667 -32.667 -236 -98s-98 -144 -98 -236s32.667 -170.667 98 -236s144 -98 236 -98s170.667 32.667 236 98z" />
    <glyph glyph-name="registered" unicode="&#xae;" horiz-adv-x="443" 
d="M247 600c28.667 0 43.668 -13 45.001 -39s-11 -41.667 -37 -47l44 -85h-41c-26.667 55.333 -40.334 83.333 -41.001 84h-9v-84h-42v171h81zM208.001 522c14 -0.666992 24.667 2.66699 32 10c6.66699 6.66699 10 14.667 10 24c-0.666992 9.33301 -4.66699 17.333 -12 24
c-7.33301 7.33301 -17.333 11 -30 11v-69zM343.001 636.001c33.333 -34 50 -74.667 50 -122s-16.667 -87.666 -50 -120.999c-34 -33.333 -74.667 -50 -122 -50s-87.666 16.667 -120.999 50s-50 73.666 -50 120.999s16.667 88 50 122c33.333 33.333 73.666 50 120.999 50
s88 -16.667 122 -50zM337.001 399.001c31.333 32 47 70.333 47 115c0 45.333 -15.667 83.666 -47 114.999c-32 32 -70.667 48 -116 48c-44.667 0 -83 -16 -115 -48c-31.333 -31.333 -47 -69.666 -47 -114.999c0 -44.667 15.667 -83 47 -115c32 -32 70.333 -48 115 -48
c45.333 0 84 16 116 48z" />
    <glyph glyph-name="multiply" unicode="&#xd7;" horiz-adv-x="318" 
d="M268 359l-103 -103l103 -103l-6 -6l-103 103l-103 -103l-6 6l103 103l-103 103l6 6l103 -103l103 103z" />
    <glyph glyph-name="uni0401" unicode="&#x401;" horiz-adv-x="458" 
d="M221 677v-244h129v-9h-129v-415h237v-9h-408v686h408v-9h-237zM106 769c-12.667 12.667 -19 27.667 -19 45c0 18 6.33301 33.333 19 46s27.667 19 45 19c18 0 33.333 -6.33301 46 -19s19 -28 19 -46c0 -17.333 -6.33301 -32.333 -19 -45s-28 -19 -46 -19
c-17.333 0 -32.333 6.33301 -45 19zM312 769c-12.667 12.667 -19 27.667 -19 45c0 18 6.33301 33.333 19 46s27.667 19 45 19c18 0 33.333 -6.33301 46 -19c12 -12.667 18 -28 18 -46c0 -17.333 -6 -32.333 -18 -45c-12.667 -12.667 -28 -19 -46 -19
c-17.333 0 -32.333 6.33301 -45 19z" />
    <glyph glyph-name="uni0410" unicode="&#x410;" horiz-adv-x="539" 
d="M300 252h-224l-67 -252h-9l184 686l160 43l195 -729h-172zM298 260l-110 410l-110 -410h220z" />
    <glyph glyph-name="uni0411" unicode="&#x411;" horiz-adv-x="596" 
d="M356 471c64.667 0 116.667 -24.333 156 -73c36 -44.667 55.333 -98.667 58 -162c2.66699 -64 -12.333 -118 -45 -162c-36 -49.333 -86.333 -74 -151 -74h-324v686h408v-9h-237v-206h135zM221 9c64.667 0 113 23.667 145 71c27.333 41.333 38.333 93.333 33 156
c-4.66699 60 -23 112 -55 156c-34 47.333 -75 71 -123 71v-454z" />
    <glyph glyph-name="uni0412" unicode="&#x412;" horiz-adv-x="623" 
d="M374 424c70 0 125.667 -22 167 -66c36.667 -39.333 55.667 -88 57 -146c0.666992 -57.333 -16.333 -106 -51 -146c-38.667 -44 -90.667 -66 -156 -66h-341v686h324c38.667 0 71 -10.667 97 -32c26.667 -22 40 -51.333 40 -88c0 -38 -13.333 -69.667 -40 -95
s-59 -38 -97 -38v-9zM221 433c52.667 0 90.667 9 114 27c24 18 36 47 36 87c0 86.667 -50 130 -150 130v-244zM221 9c67.333 0 118.668 21.667 154.001 65c31.333 38 45.333 85.333 42 142c-3.33301 56 -22 103.667 -56 143c-36.667 43.333 -83.334 65 -140.001 65v-415z
" />
    <glyph glyph-name="uni0413" unicode="&#x413;" horiz-adv-x="458" 
d="M458 677h-237v-677h-171v686h408v-9z" />
    <glyph glyph-name="uni0414" unicode="&#x414;" horiz-adv-x="609" 
d="M609 9v-86h-9v77h-591v-77h-9v86h43c23.333 0 43.333 8.33301 60 25c17.333 16.667 26 36.667 26 60v592h394v-677h86zM351 9v668h-214v-583c0 -40 -18.333 -68.333 -55 -85h269z" />
    <glyph glyph-name="uni0415" unicode="&#x415;" horiz-adv-x="458" 
d="M458 677h-237v-244h129v-9h-129v-415h237v-9h-408v686h408v-9z" />
    <glyph glyph-name="uni0416" unicode="&#x416;" horiz-adv-x="862" 
d="M538 330l-22 -29v-301h-171v301l-22 29l-158 -330h-165l228 451l-184 235h9l292 -371v371h171v-371l292 371h9l-184 -235l228 -451h-164z" />
    <glyph glyph-name="uni0417" unicode="&#x417;" horiz-adv-x="500" 
d="M279 463c61.333 0 110.668 -24.665 148.001 -73.998c34.667 -46 50.334 -100 47.001 -162c-4 -65.333 -29.333 -119.333 -76 -162c-52.667 -49.333 -125 -74 -217 -74c-78.667 0 -139 21 -181 63l6 6c34.667 -34.667 82 -52 142 -52c53.333 0 93.666 19.667 120.999 59
c26 36.667 39 88 39 154c0 161.333 -60.333 242 -181 242v8c45.333 0 80.666 10.333 105.999 31c22.667 18.667 34 41.667 34 69c0 36 -12 63.333 -36 82c-20 16 -46.667 24 -80 24c-48.667 0 -85.667 -13 -111 -39l-6 6c33.333 33.333 87 50 161 50
c52 0 95.667 -10 131 -30c40 -22.667 60 -54.334 60 -95.001c0 -26.667 -9 -49.334 -27 -68.001c-20 -20 -46.667 -30 -80 -30v-8z" />
    <glyph glyph-name="uni0418" unicode="&#x418;" horiz-adv-x="614" 
d="M564 703v-703h-171v458l-332 -475h-11v703h171v-458l333 475h10z" />
    <glyph glyph-name="uni0419" unicode="&#x419;" horiz-adv-x="614" 
d="M564 703v-703h-171v458l-332 -475h-11v703h171v-458l333 475h10zM307 758c-47.333 0 -87.667 16.667 -121 50l6 6c32 -31.333 70.333 -47 115 -47c45.333 0 83.666 15.667 114.999 47l6 -6c-33.333 -33.333 -73.666 -50 -120.999 -50z" />
    <glyph glyph-name="uni041A" unicode="&#x41a;" horiz-adv-x="583" 
d="M792 -164v-7.00098c-93.333 0 -166.666 10 -219.999 30c-67.333 26 -118.333 72.333 -153 139c-14 26.667 -46 92.334 -96 197.001l-53 111c-6 14 -12.333 27.667 -19 41l-6 14l-3 5l-2 4l-20 -26v-344h-171v686h171v-328l259 328h8l-152 -195
c1.33301 -3.33301 3.33301 -7.33301 6 -12c2.66699 -6 5.66699 -12.333 9 -19l28 -56l77 -156c73.333 -146 115.666 -228.667 126.999 -248c65.333 -109.333 135.333 -164 210 -164z" />
    <glyph glyph-name="uni041B" unicode="&#x41b;" horiz-adv-x="531" 
d="M480 686v-686h-171v677h-215v-583c0 -26 -9 -48 -27 -66c-18.667 -18.667 -41 -28 -67 -28v9c24 0 44.333 8.33301 61 25s25 36.667 25 60v592h394z" />
    <glyph glyph-name="uni041C" unicode="&#x41c;" horiz-adv-x="886" 
d="M885 0h-174l-118 670l-150 -440l-79 -229l-8 -1l-229 669l-118 -669h-9l121 686h166l151 -444l152 444h174z" />
    <glyph glyph-name="uni041D" unicode="&#x41d;" horiz-adv-x="657" 
d="M606 686v-686h-171v424h-215v-424h-171v686h171v-253h215v253h171z" />
    <glyph glyph-name="uni041E" unicode="&#x41e;" horiz-adv-x="719" 
d="M597 600c64.667 -65.333 97 -151 97 -257c0 -106.667 -32.333 -192.334 -97 -257.001c-62 -63.333 -141.333 -95 -238 -95s-176 31.667 -238 95c-64 64.667 -96 150.334 -96 257.001c0 106 32 191.667 96 257c62 62.667 141.333 94 238 94s176 -31.333 238 -94zM472 75
c28 55.333 42 144.666 42 267.999s-14 212.666 -42 267.999c-24.667 50 -62.334 75 -113.001 75c-50 0 -87.333 -25 -112 -75c-28 -55.333 -42 -144.666 -42 -267.999s14 -212.666 42 -267.999c24.667 -50 62 -75 112 -75c50.667 0 88.334 25 113.001 75z" />
    <glyph glyph-name="uni041F" unicode="&#x41f;" horiz-adv-x="614" 
d="M564 686v-686h-171v677h-172v-677h-171v686h514z" />
    <glyph glyph-name="uni0420" unicode="&#x420;" horiz-adv-x="582" 
d="M376 686c50.667 0 93 -15.334 127 -46.001c35.333 -31.333 53 -71.666 53 -120.999c0 -48.667 -16.333 -90 -49 -124c-36.667 -37.333 -85 -56 -145 -56l-141 -1v-338h-171v686h326zM221 345.999c62.667 0 110.667 15.333 144 46c30 27.333 45 62 45 104
c0 120.667 -63 181 -189 181v-331z" />
    <glyph glyph-name="uni0421" unicode="&#x421;" horiz-adv-x="635" 
d="M634 83c-61.333 -61.333 -141.001 -92 -239.001 -92c-118.667 0 -211.667 36.667 -279 110c-60.667 64.667 -91 144.667 -91 240c0 94.667 29.333 175.667 88 243c64 73.333 148.667 110 254 110c68 0 128 -9.66699 180 -29c16.667 -6.66699 31.667 -13.667 45 -21
c4 -2.66699 7.66699 -5 11 -7l3 -3l2 -1l-6 -6c-14 11.333 -34.667 21.333 -62 30c-30.667 9.33301 -62 14.333 -94 15c-80.667 2 -142 -26.667 -184 -86c-38.667 -54.667 -58 -130 -58 -226c0 -230.667 75.333 -346 226 -346c38.667 0 78.334 8.66699 119.001 26
c34.667 14.667 61 31 79 49z" />
    <glyph glyph-name="uni0422" unicode="&#x422;" horiz-adv-x="515" 
d="M0 686h514v-9h-171v-677h-172v677h-171v9z" />
    <glyph glyph-name="uni0423" unicode="&#x423;" horiz-adv-x="554" 
d="M553 686c-130.667 -312 -203.667 -485 -219 -519c-24 -54 -54.333 -95.667 -91 -125c-35.333 -28 -72.333 -42 -111 -42v9c38 0 74.333 14.667 109 44c34 28.667 62.333 68 85 118l35 81h-162l-199 434h180l186 -423l177 423h10z" />
    <glyph glyph-name="uni0424" unicode="&#x424;" horiz-adv-x="902" 
d="M671 686c64.667 0 116 -24.667 154 -74c34 -44 51 -98 51 -162s-17.333 -118 -52 -162c-38 -49.333 -89 -74 -153 -74h-135v-214h-172v214h-135c-64 0 -115 24.667 -153 74c-34.667 44 -52 98 -52 162s17 118 51 162c38 49.333 89.333 74 154 74h442zM364 677
c-47.333 0 -88 -23.667 -122 -71c-32 -44 -50.667 -96 -56 -156c-5.33301 -62.667 6 -114.667 34 -156c31.333 -47.333 79.333 -71 144 -71v454zM536 223c64.667 0 112.667 23.667 144 71c28 41.333 39.333 93.333 34 156c-5.33301 60 -24 112 -56 156
c-34 47.333 -74.667 71 -122 71v-454z" />
    <glyph glyph-name="uni0425" unicode="&#x425;" horiz-adv-x="601" 
d="M234 304l-213 -304h-10l218 312l1 -2l-230 376h180l162 -265l185 265h11l-191 -273l253 -413h-180z" />
    <glyph glyph-name="uni0426" unicode="&#x426;" horiz-adv-x="625" 
d="M650 9v-86h-9v77h-591v686h171v-677h172v677h171v-677h86z" />
    <glyph glyph-name="uni0427" unicode="&#x427;" horiz-adv-x="590" 
d="M539 686l0.000976562 -686h-171v252h-86c-74.667 0 -135.334 18 -182.001 54c-50 38.667 -75 92 -75 160v220h171v-340c0 -23.333 8.66699 -43.333 26 -60c16.667 -17.333 36.667 -26 60 -26h86v426h171z" />
    <glyph glyph-name="uni0428" unicode="&#x428;" horiz-adv-x="957" 
d="M906 686v-686h-857v686h171v-677h172v677h171v-677h172v677h171z" />
    <glyph glyph-name="uni0429" unicode="&#x429;" horiz-adv-x="968" 
d="M992 9v-86h-9v77h-934v686h171v-677h172v677h171v-677h172v677h171v-677h86z" />
    <glyph glyph-name="uni042A" unicode="&#x42a;" horiz-adv-x="592" 
d="M333 471c70 0 126.666 -24.333 169.999 -73c39.333 -44.667 60.333 -98.667 63 -162c2.66699 -64 -14 -118 -50 -162c-39.333 -49.333 -94.666 -74 -165.999 -74h-289v677h-77v-77h-9v86h257v-215h101zM231.999 9c60.667 0 105.666 23.667 134.999 71
c25.333 41.333 35.333 93.333 30 156c-5.33301 60 -22.666 112 -51.999 156c-32 47.333 -69.667 71 -113 71v-454z" />
    <glyph glyph-name="uni042B" unicode="&#x42b;" horiz-adv-x="863" 
d="M322 471c70.667 0 127.665 -24.333 170.998 -73c38.667 -44.667 59.334 -98.667 62.001 -162c2.66699 -64 -13.666 -118 -48.999 -162c-40 -49.333 -95.667 -74 -167 -74h-289v686h171v-215h101zM220.998 9c60.667 0 105.667 23.667 135 71
c25.333 41.333 35.333 93.333 30 156c-4.66699 60 -22 112 -52 156c-32 47.333 -69.667 71 -113 71v-454zM640.998 0v686h172v-686h-172z" />
    <glyph glyph-name="uni042C" unicode="&#x42c;" horiz-adv-x="581" 
d="M322 471c70.667 0 127.665 -24.333 170.998 -73c38.667 -44.667 59.334 -98.667 62.001 -162c2.66699 -64 -13.666 -118 -48.999 -162c-40 -49.333 -95.667 -74 -167 -74h-289v686h171v-215h101zM220.998 9c60.667 0 105.667 23.667 135 71
c25.333 41.333 35.333 93.333 30 156c-4.66699 60 -22 112 -52 156c-32 47.333 -69.667 71 -113 71v-454z" />
    <glyph glyph-name="uni042D" unicode="&#x42d;" horiz-adv-x="603" 
d="M497 584c52.667 -66.667 79.332 -147.001 79.999 -241.001c0.666992 -96 -26.666 -176.667 -81.999 -242c-62 -73.333 -147.333 -110 -256 -110c-98 0 -177.667 30.667 -239 92l6 6c18 -18 44.333 -34.333 79 -49c40.667 -17.333 80.334 -26 119.001 -26
c62.667 0 112.667 37 150 111c34.667 68 50.667 148 48 240c-10.667 -24 -30 -36 -58 -36c-8.66699 0 -19.334 2 -32.001 6l-15 6l-15 6c-24.667 8 -45.667 4.33301 -63 -11l-6 3c1.33301 14 8.66602 26 21.999 36s27.333 15 42 15c7.33301 0 15 -1.33301 23 -4l21 -8
c18.667 -7.33301 32.667 -11 42 -11s17.333 1.66699 24 5c9.33301 4.66699 14 11 14 19c-6 80.667 -26 146.667 -60 198c-38.667 56.667 -89.667 84.334 -153 83.001c-32 -0.666992 -63.333 -5.66699 -94 -15c-27.333 -8.66699 -48 -18.667 -62 -30l-6 6l2 1l3 3l12 7
c12.667 7.33301 27.334 14.333 44.001 21c52.667 19.333 112.667 29 180 29c95.333 0 172 -36.667 230 -110z" />
    <glyph glyph-name="uni042E" unicode="&#x42e;" horiz-adv-x="886" 
d="M792 593c46 -66 69 -146.667 69 -242c0 -94.667 -23 -175 -69 -241c-51.333 -73.333 -120.666 -110 -207.999 -110c-86 -0 -154.667 36.333 -206 109c-46 65.333 -69.667 144.333 -71 237h-86v-337h-171v685h171v-339h86c0.666992 92.667 24 172 70 238
c52 73.333 121 110 207 110c87.333 0 156.666 -36.667 207.999 -110zM664 116c18 64 26.999 142.333 26.999 235c0 93.333 -9 172 -27 236c-20 71.333 -46.667 107 -80 107s-59.666 -35.667 -78.999 -107c-18 -64 -27 -142.667 -27 -236c0 -92.667 8.66699 -171 26 -235
c20 -71.333 46.667 -107 80 -107s60 35.667 80 107z" />
    <glyph glyph-name="uni042F" unicode="&#x42f;" horiz-adv-x="574" 
d="M523 686l0.000976562 -686.001h-171v338h-12l-14 -1l-1 -1l-1 -3c-1.33301 -3.33301 -3 -6.66602 -5 -9.99902c-4.66699 -10.667 -10 -21.667 -16 -33l-47 -101c-47.333 -99.333 -78.333 -163 -93 -191c-34.667 -66.667 -86 -113 -154 -139
c-53.333 -20 -126.333 -30 -219 -30v8c75.333 0 145 54.333 209 163c11.333 18.667 40.666 75 87.999 169l54 107l22 43l15 30c-96 23.333 -144 80 -144 170c0 48 20.667 88.333 62 121c38.667 30.667 84 46 136 46h291zM352.001 676.999
c-46 0 -83.333 -17.332 -112 -51.999c-26.667 -30.667 -40.334 -68.334 -41.001 -113.001c-1.33301 -45.333 10.334 -83.333 35.001 -114c28 -34.667 67.333 -52 118 -52v331z" />
    <glyph glyph-name="uni0430" unicode="&#x430;" horiz-adv-x="530" 
d="M415 408c42 -44 63.001 -100.002 63.001 -168.002v-240h-146c-13.333 13.333 -21.333 29 -24 47c-32.667 -31.333 -75 -47 -127 -47c-42.667 0 -78.667 11.333 -108 34c-32.667 24 -49 57 -49 99c0 38.667 13.667 71.334 41 98.001
c19.333 18.667 49.666 37.334 90.999 56.001l25 11l24 10c18 8 32 15.333 42 22c28 16.667 42 35.667 42 57c0 23.333 -8 42.333 -24 57c-15.333 14 -34.666 21 -57.999 21c-48 0 -86.667 -14.333 -116 -43l-6 6c35.333 34.667 82.666 52 141.999 52
c80 0 142.667 -24 188 -72zM307.001 239.998c0 64 -3.33398 110.998 -10.001 140.998c-1.33301 -17.333 -7.33301 -35.666 -18 -54.999c-4 -6.66699 -9.33301 -15 -16 -25l-9 -14l-10 -13c-32.667 -49.333 -49 -100.666 -49 -153.999c0 -52 18.667 -80 56 -84
c14.667 -1.33301 27.334 2.66699 38.001 12c12 9.33301 18 22 18 38v154z" />
    <glyph glyph-name="uni0431" unicode="&#x431;" horiz-adv-x="519" 
d="M330 286c45.333 0 83.666 -15 114.999 -45c30 -28 45.667 -60.667 47 -98c0.666992 -40 -15.666 -72.667 -48.999 -98c-38.667 -30 -95 -45 -169 -45h-225v471l343 1v-9h-172v-177h110zM220 9c38 2 67.332 17 87.999 45c18.667 25.333 27.667 56 27 92
s-10.667 66.333 -30 91c-21.333 27.333 -49.666 41 -84.999 41v-269z" />
    <glyph glyph-name="uni0432" unicode="&#x432;" horiz-adv-x="523" 
d="M365 278c41.333 0 75 -14.667 101 -44c24 -27.333 34.333 -59 31 -95c-3.33301 -38.667 -22.333 -70.667 -57 -96c-40 -28.667 -95 -43 -165 -43h-225v471h214c53.333 0 95.666 -9.66699 126.999 -29c26.667 -16 42.334 -37 47.001 -63c4 -24 -1 -45.333 -15 -64
c-14.667 -19.333 -34 -29 -58 -29v-8zM221 286c29.333 0 53.001 9.33301 71.001 28c16 16.667 24.667 36.667 26 60c0.666992 24 -6 44.333 -20 61c-16.667 18.667 -39.334 28 -68.001 28h-9v-177zM221.001 9c38 2 67.332 17 87.999 45c18.667 25.333 27.667 56 27 92
s-10.667 66.333 -30 91c-21.333 27.333 -49.666 41 -84.999 41v-269z" />
    <glyph glyph-name="uni0433" unicode="&#x433;" horiz-adv-x="393" 
d="M393 463h-172v-463h-171v471l343 1v-9z" />
    <glyph glyph-name="uni0434" unicode="&#x434;" horiz-adv-x="566" 
d="M566 9v-86h-9v77h-548v-77h-9v86h43c23.333 0 43.333 8.33301 60 25c17.333 16.667 26 36.667 26 60v378h351v-463h86zM309 9v454h-172v-369c0 -40 -18.333 -68.333 -55 -85h227z" />
    <glyph glyph-name="uni0435" unicode="&#x435;" horiz-adv-x="541" 
d="M450 67l5.99902 -6c-46 -46.667 -105.333 -70 -178 -70c-81.333 0 -145.333 25.667 -192 77c-42 45.333 -62.667 101.333 -62 168c0.666992 66 21.667 122 63 168c46 50.667 107 76 183 76c69.333 0 128.333 -24.333 177 -73c45.333 -46 68 -97.667 68 -155h-326
c0.666992 -66 12.334 -120 35.001 -162c26.667 -49.333 65.667 -74 117 -74c38.667 0 75 17 109 51zM213.999 406c-16 -42 -24.333 -90.667 -25 -146h156c-0.666992 140.667 -25.667 211 -75 211c-22 0 -40.667 -21.667 -56 -65z" />
    <glyph glyph-name="uni0436" unicode="&#x436;" horiz-adv-x="730" 
d="M566 0l-90 206l-26 -33v-173h-171v173l-26 33l-90 -206h-163l162 323l-116 148h8l225 -285v285h146c16.667 -16.667 25 -36.667 25 -60v-225l225 285h9l-117 -148l42 -85l45 -89l75 -149h-163z" />
    <glyph glyph-name="uni0437" unicode="&#x437;" horiz-adv-x="435" 
d="M279 278c44.667 0 79.0059 -15.001 103.006 -45.001c23.333 -28 31.666 -60.667 24.999 -98c-6.66699 -40 -28.667 -73 -66 -99c-42.667 -29.333 -99 -44 -169 -44c-67.333 0 -124.666 23.667 -171.999 71l6 6c35.333 -35.333 78.666 -53 129.999 -53
c39.333 0 70.666 13.667 93.999 41c21.333 24 32.333 54 33 90c0.666992 34.667 -8.33301 64.667 -27 90c-20.667 27.333 -48.667 41 -84 41v8c25.333 0 45.333 9.66699 60 29c13.333 17.333 19.666 38.333 18.999 63c0 24.667 -7.66699 45.667 -23 63
c-16.667 19.333 -39.334 29 -68.001 29c-36.667 0 -67.334 -12.333 -92.001 -37l-6 6c28 27.333 73.333 41 136 41c53.333 0 95.666 -10 126.999 -30c26 -17.333 41.667 -39.666 47 -66.999c4 -24.667 -1 -47 -15 -67c-14.667 -20 -34 -30 -58 -30v-8z" />
    <glyph glyph-name="uni0438" unicode="&#x438;" 
d="M520 471l-0.000976562 -471h-146c-12.667 12.667 -20.667 28 -24 46c-32 -30.667 -74.667 -46 -128 -46c-48 0 -87.667 11.667 -119 35c-36 26.667 -54 65 -54 115v322l146 -1c16.667 -16.667 25 -36.667 25 -60v-282c0 -52 21.667 -81.333 65 -88
c16.667 -2.66699 31.334 0 44.001 8c13.333 8.66699 20 21 20 37v385h171z" />
    <glyph glyph-name="uni0439" unicode="&#x439;" 
d="M520 471l-0.000976562 -471h-146c-12.667 12.667 -20.667 28 -24 46c-32 -30.667 -74.667 -46 -128 -46c-48 0 -87.667 11.667 -119 35c-36 26.667 -54 65 -54 115v322l146 -1c16.667 -16.667 25 -36.667 25 -60v-282c0 -52 21.667 -81.333 65 -88
c16.667 -2.66699 31.334 0 44.001 8c13.333 8.66699 20 21 20 37v385h171zM288.999 544c-47.333 0 -87.668 16.667 -121.001 50l6 6c32 -32 70.333 -48 115 -48s83 16 115 48l6 -6c-33.333 -33.333 -73.666 -50 -120.999 -50z" />
    <glyph glyph-name="uni043A" unicode="&#x43a;" horiz-adv-x="515" 
d="M436 152c37.333 -75.333 63 -126 77 -152h-164l-49 101l-59 124l-21 -26v-199h-171v471h146c16.667 -16.667 25 -36.667 25 -60v-199l205 259h9l-97 -123z" />
    <glyph glyph-name="uni043B" unicode="&#x43b;" horiz-adv-x="463" 
d="M412 472v-472h-171v463h-172v-369c0 -26 -9 -48 -27 -66c-18.667 -18.667 -41 -28 -67 -28v9c24 0 44.333 8.33301 61 25s25 36.667 25 60v378h351z" />
    <glyph glyph-name="uni043C" unicode="&#x43c;" horiz-adv-x="689" 
d="M639 472v-472h-171v452l-201 -452h-8l-200 452v-452h-9v472h171l123 -278l124 277v1h171z" />
    <glyph glyph-name="uni043D" unicode="&#x43d;" 
d="M350 252h-129v-252h-171v472h171v-212h129v212h171v-472h-146c-16.667 16.667 -25 37 -25 61v191z" />
    <glyph glyph-name="uni043E" unicode="&#x43e;" horiz-adv-x="540" 
d="M452 404c41.333 -46 62 -102 62 -168c0 -66.667 -20.667 -122.667 -62 -168c-45.333 -51.333 -106.333 -77 -183 -77c-77.333 0 -138.666 25.667 -183.999 77c-40.667 45.333 -61 101.333 -61 168c0 66 20.333 122 61 168c45.333 50.667 106.666 76 183.999 76
c76.667 0 137.667 -25.333 183 -76zM329 74c13.333 44 19.999 98 19.999 162s-6.66699 118 -20 162c-14.667 48.667 -34.667 73 -60 73s-45.666 -24.333 -60.999 -73c-13.333 -44.667 -20 -98.667 -20 -162c0 -64 7 -118 21 -162c14.667 -49.333 34.667 -74 60 -74
s45.333 24.667 60 74z" />
    <glyph glyph-name="uni043F" unicode="&#x43f;" 
d="M221 0l-170.999 -0.000976562v472l298 -1c48 0 87.667 -11.333 119 -34c36 -26.667 54 -65 54 -115v-322h-146c-16.667 16.667 -25 37 -25 61v291c0 27.333 -6.66699 50 -20 68c-10.667 14 -25.334 24.667 -44.001 32c-21.333 8.66699 -43 12.334 -65 11.001v-463z" />
    <glyph glyph-name="uni0440" unicode="&#x440;" horiz-adv-x="562" 
d="M489 398c31.333 -44.667 47 -98.667 47 -162c0 -64 -15.667 -118 -47 -162c-35.333 -49.333 -82.666 -74 -141.999 -74c-52.667 0 -95 15 -127 45v-259h-171v685h146c13.333 -12.667 21.333 -28 24 -46c32 30.667 74.667 46 128 46c59.333 0 106.666 -24.333 141.999 -73
zM341 95c16 38.667 24.332 85.668 24.999 141.001s-6.66602 102 -21.999 140c-16.667 42.667 -40 64 -70 64c-14 0 -26.333 -5.33301 -37 -16c-11.333 -11.333 -17 -24.333 -17 -39v-299c0 -14.667 5.66699 -27.334 17 -38.001c10.667 -11.333 23 -17 37 -17
c28 0 50.333 21.333 67 64z" />
    <glyph glyph-name="uni0441" unicode="&#x441;" horiz-adv-x="442" 
d="M225 391c-22 -42 -33.001 -93 -33.001 -153c0 -60.667 11 -111.667 33 -153c24.667 -46.667 58.334 -70 101.001 -70c38 0 74.333 17.333 109 52l6 -6c-46 -46.667 -105.333 -70 -178 -70c-74.667 0 -134 25.667 -178 77c-40 45.333 -60 101.333 -60 168
c0 66 20 122 60 168c44 50.667 103.333 76 178 76c72.667 0 132 -23 178 -69l-6 -6c-37.333 37.333 -75 56 -113 56c-40.667 0 -73 -23.333 -97 -70z" />
    <glyph glyph-name="uni0442" unicode="&#x442;" horiz-adv-x="429" 
d="M0 471h429v-8h-129v-463h-171v463h-129v8z" />
    <glyph glyph-name="uni0443" unicode="&#x443;" horiz-adv-x="519" 
d="M519 471c-130.667 -311.333 -203.667 -484.001 -219 -518.001c-24.667 -54 -55 -95.667 -91 -125c-35.333 -28 -72.333 -42 -111 -42v8c38 0.666992 74.333 15.334 109 44.001c34 29.333 62.333 69 85 119l18 43h-111l-199 471h180l161 -398l168 398h10z" />
    <glyph glyph-name="uni0444" unicode="&#x444;" horiz-adv-x="853" 
d="M779 398c32 -44 47.666 -98 46.999 -162c0 -64 -15.667 -118 -47 -162c-34.667 -49.333 -81.667 -74 -141 -74c-52.667 0 -95 15 -127 45v-259h-171v259c-32 -30 -74.333 -45 -127 -45c-59.333 0 -106.666 24.667 -141.999 74c-31.333 44 -47 98 -47 162
s15.667 118 47 162c34.667 48.667 82 73 142 73c52.667 0 95 -14.667 127 -44v259h171v-259c32 29.333 74.333 44 127 44c59.333 0 106.333 -24.333 141 -73zM322.999 48c11.333 10.667 17.001 23.334 17.001 38.001v299c0 14.667 -5.66699 27.667 -17 39
c-10.667 10.667 -23 16 -37 16c-28 0 -50.333 -21.333 -67 -64c-16 -38.667 -24.333 -85.334 -25 -140.001c-0.666992 -56 6.66602 -103 21.999 -141c16.667 -42.667 40 -64 70 -64c14 0 26.333 5.66699 37 17zM635 95c14.667 38 21.667 85 21 141
c-0.666992 54.667 -8.66699 101.334 -24 140.001c-17.333 42.667 -40 64 -68 64c-14 0 -26.333 -5.33301 -37 -16c-10.667 -11.333 -16 -24.333 -16 -39v-299c0 -14.667 5.33301 -27.334 16 -38.001c10.667 -11.333 23 -17 37 -17c30 0 53.667 21.333 71 64z" />
    <glyph glyph-name="uni0445" unicode="&#x445;" horiz-adv-x="469" 
d="M289 0l-121 197l-137 -197h-11l144 205l-164 266h180l96 -157l111 157h10l-116 -165l188 -306h-180z" />
    <glyph glyph-name="uni0446" unicode="&#x446;" horiz-adv-x="583" 
d="M607 9v-86h-8v77h-549v471h171v-462h129v462h171v-462h86z" />
    <glyph glyph-name="uni0447" unicode="&#x447;" horiz-adv-x="547" 
d="M495 471l-0.000976562 -471.001h-146c-16.667 16.667 -25 37 -25 61v113c-32 -30 -74.333 -45 -127 -45c-48 0 -87.667 11.333 -119 34c-36 26.667 -54 65.334 -54 116.001v193l146 -1c16.667 -16.667 25 -36.667 25 -60v-154c0 -52 21.667 -81.333 65 -88
c16.667 -2.66699 31.334 0.333008 44.001 9c13.333 8.66699 20 21 20 37v256h171z" />
    <glyph glyph-name="uni0448" unicode="&#x448;" horiz-adv-x="871" 
d="M821 471v-471h-771v471h171v-462h129v462h171v-462h129v462h171z" />
    <glyph glyph-name="uni0449" unicode="&#x449;" horiz-adv-x="883" 
d="M907 9v-86h-8v77h-849v471h171v-462h129v462h171v-462h129v462h171v-462h86z" />
    <glyph glyph-name="uni044A" unicode="&#x44a;" horiz-adv-x="553" 
d="M487 294c28.667 -32.667 42 -72.333 40 -119c-1.33301 -47.333 -18 -87 -50 -119c-36.667 -36 -85.667 -54.333 -147 -55l-269 -1v463h-77v-77h-9v85h257v-168c32 30 74.333 45 127 45c53.333 0 96 -18 128 -54zM232 9.00098c47.333 0 83.334 16.335 108.001 49.002
c21.333 28.667 32 65 32 109c0 39.333 -8 73.666 -24 102.999c-17.333 31.333 -38 47 -62 47c-14.667 0 -27.334 -5.66699 -38.001 -17c-10.667 -10.667 -16 -23.334 -16 -38.001v-253z" />
    <glyph glyph-name="uni044B" unicode="&#x44b;" horiz-adv-x="794" 
d="M476 294c28.667 -32.667 42.333 -72.333 41 -119c-2 -47.333 -19 -87 -51 -119c-36 -36 -85 -54.333 -147 -55l-269 -1v471h171v-168c32 30 74.333 45 127 45c54 0 96.667 -18 128 -54zM220.999 9.00098c47.333 0 83.334 16.335 108.001 49.002
c21.333 28.667 32 65 32 109c0 39.333 -8 73.666 -24 102.999c-16.667 31.333 -37.334 47 -62.001 47c-14 0 -26.333 -5.66699 -37 -17c-11.333 -10.667 -17 -23.334 -17 -38.001v-253zM573 0.00292969v471h172v-471h-172z" />
    <glyph glyph-name="uni044C" unicode="&#x44c;" horiz-adv-x="542" 
d="M476 294c28.667 -32.667 42.333 -72.333 41 -119c-2 -47.333 -19 -87 -51 -119c-36 -36 -85 -54.333 -147 -55l-269 -1v471h171v-168c32 30 74.333 45 127 45c54 0 96.667 -18 128 -54zM220.999 9.00098c47.333 0 83.334 16.335 108.001 49.002
c21.333 28.667 32 65 32 109c0 39.333 -8 73.666 -24 102.999c-16.667 31.333 -37.334 47 -62.001 47c-14 0 -26.333 -5.66699 -37 -17c-11.333 -10.667 -17 -23.334 -17 -38.001v-253z" />
    <glyph glyph-name="uni044D" unicode="&#x44d;" horiz-adv-x="461" 
d="M371 404c43.333 -46 65.001 -102 65.001 -168c0 -66.667 -21.667 -122.667 -65 -168c-47.333 -51.333 -111.666 -77 -192.999 -77c-72.667 0 -132 23.333 -178 70l6 6c34.667 -34.667 71 -52 109 -52c50 0 89 24 117 72c25.333 43.333 37.666 96 36.999 158
c-9.33301 -1.33301 -18.333 -2 -27 -2c-7.33301 0 -15.333 0.666992 -24 2l-23 4c-33.333 6.66699 -61 6.66699 -83 0l-3 8c16 4.66699 32 6.66699 48 6c6 -0.666992 12.667 -1.33398 20 -2.00098l20 -4c29.333 -6 53 -7 71 -3
c-2.66699 56.667 -16.334 104.334 -41.001 143.001c-27.333 42.667 -63.333 64 -108 64c-38 0 -75.667 -18.667 -113 -56l-6 6c46 46 105.333 69 178 69c80.667 0 145 -25.333 193 -76z" />
    <glyph glyph-name="uni044E" unicode="&#x44e;" horiz-adv-x="804" 
d="M719 404c38.667 -46 58 -102 58 -168c0 -66.667 -19.333 -122.667 -58 -168c-44 -51.333 -103 -77 -177 -77c-77.333 0 -138 28.333 -182 85c-40 50 -57.667 108.667 -53 176h-87v-252h-171v471h171v-211h87c6 60 28.333 110.333 67 151c43.333 46 99.333 69 168 69
c74 0 133 -25.333 177 -76zM598 72c12.667 44.667 19 99.334 19 164.001s-6.33301 119.334 -19 164.001c-14 49.333 -32.667 74 -56 74s-42 -24.667 -56 -74c-12.667 -44.667 -19 -99.334 -19 -164.001s6.33301 -119.334 19 -164.001c14 -50 32.667 -75 56 -75s42 25 56 75z
" />
    <glyph glyph-name="uni044F" unicode="&#x44f;" horiz-adv-x="533" 
d="M481 471l0.000976562 -470.999h-171v81l1 56c1.33301 48 2 83.333 2 106c-30.667 -4.66699 -56 -29 -76 -73l-20 -45l-17 -44c-14.667 -36 -26.334 -63 -35.001 -81h-165c14.667 26.667 30.667 59.667 48 99l10 22l4 10l4 10c6 14 10.667 24.333 14 31
c20 38.667 52.333 62.667 97 72v8c-36.667 0 -65 11.333 -85 34c-19.333 21.333 -27.333 46.666 -24 75.999c3.33301 30 17.333 55 42 75c28.667 22.667 66.667 34 114 34h257zM313.001 463.001c-33.333 0 -59.668 -11 -79.001 -33c-17.333 -20 -25.666 -44.333 -24.999 -73
c0 -28 8.66699 -52 26 -72c19.333 -22 45.333 -33 78 -33v211z" />
    <glyph glyph-name="uni0451" unicode="&#x451;" horiz-adv-x="541" 
d="M450 67l5.99902 -6c-46 -46.667 -105.333 -70 -178 -70c-81.333 0 -145.333 25.667 -192 77c-42 45.333 -62.667 101.333 -62 168c0.666992 66 21.667 122 63 168c46 50.667 107 76 183 76c69.333 0 128.333 -24.333 177 -73c45.333 -46 68 -97.667 68 -155h-326
c0.666992 -66 12.334 -120 35.001 -162c26.667 -49.333 65.667 -74 117 -74c38.667 0 75 17 109 51zM213.999 406c-16 -42 -24.333 -90.667 -25 -146h156c-0.666992 140.667 -25.667 211 -75 211c-22 0 -40.667 -21.667 -56 -65zM128.999 555c-12.667 12 -19 27 -19 45
s6.33301 33 19 45c12 12.667 27 19 45 19s33 -6.33301 45 -19c12.667 -12 19 -27 19 -45s-6.33301 -33 -19 -45c-12 -12.667 -27 -19 -45 -19s-33 6.33301 -45 19zM333.999 555c-12.667 12 -19 27 -19 45s6.33301 33 19 45c12.667 12.667 28 19 46 19
c17.333 0 32.333 -6.33301 45 -19c12.667 -12 19 -27 19 -45s-6.33301 -33 -19 -45c-12.667 -12.667 -27.667 -19 -45 -19c-18 0 -33.333 6.33301 -46 19z" />
    <glyph glyph-name="bullet" unicode="&#x2022;" horiz-adv-x="357" 
d="M88 161c-25.333 25.333 -38 55.666 -38 90.999s12.667 65.666 38 90.999c24.667 24.667 55 37 91 37c35.333 0 65.333 -12.333 90 -37c25.333 -25.333 38 -55.666 38 -90.999s-12.667 -65.666 -38 -90.999c-24.667 -25.333 -54.667 -38 -90 -38
c-36 0 -66.333 12.667 -91 38z" />
    <glyph glyph-name="Euro" unicode="&#x20ac;" horiz-adv-x="684" 
d="M684 83c-61.333 -61.333 -141.335 -92 -240.002 -92c-118.667 0 -211.667 36.667 -279 110c-60.667 64.667 -91 145 -91 241h-74v8h75c0 26.667 3 52.334 9 77.001h-84v9h86c18.667 74.667 55.334 135.334 110.001 182.001c60 50.667 133.667 76 221 76
c67.333 0 127 -9.66699 179 -29c16.667 -6.66699 31.667 -13.667 45 -21c4 -2.66699 8 -5 12 -7l3 -3l1 -1l-5 -6c-14.667 11.333 -35.334 21.333 -62.001 30c-31.333 9.33301 -62.666 14.333 -93.999 15c-65.333 1.33301 -119.666 -21.334 -162.999 -68.001
c-38 -42 -63.333 -98 -76 -168h129v-9h-131c-4 -24.667 -6 -50.334 -6 -77.001h137v-8h-137c1.33301 -88.667 21.666 -164 60.999 -226c43.333 -68 100 -102 170 -102c38 0 77.333 8.66699 118 26c34.667 14.667 61.334 31 80.001 49z" />
    </font>
</defs>
</svg>
